<?xml version="1.0" encoding="UTF-8" standalone="no"?>
<!DOCTYPE svg PUBLIC "-//W3C//DTD SVG 1.1//EN" "http://www.w3.org/Graphics/SVG/1.1/DTD/svg11.dtd">
<svg width="100%" height="100%" viewBox="0 0 1830 240" version="1.1" xmlns="http://www.w3.org/2000/svg" xmlns:xlink="http://www.w3.org/1999/xlink" xml:space="preserve" xmlns:serif="http://www.serif.com/" style="fill-rule:evenodd;clip-rule:evenodd;stroke-linejoin:round;stroke-miterlimit:2;">
    <g transform="matrix(1,0,0,1,15,0)">
        <g transform="matrix(3,-1.02318e-15,-5.22959e-16,1,-5760,-360)">
            <path d="M2521.67,475L1918.33,475L1918.33,485L2521.67,485L2521.67,475Z" style="fill:rgb(217,217,217);"/>
        </g>
        <g transform="matrix(1,0,0,1,-1920,-480)">
            <path d="M1935,510L1920,480L1905,510C1912.5,502.5 1927.5,502.5 1935,510Z" style="fill:rgb(217,217,217);"/>
        </g>
        <g transform="matrix(1,0,0,1,-1920,-480)">
            <path d="M1915,499L1915,605L1925,605L1925,499L1915,499Z" style="fill:rgb(217,217,217);"/>
        </g>
        <g transform="matrix(1,0,0,1,-1320,-480)">
            <path d="M1935,510L1920,480L1905,510C1912.5,502.5 1927.5,502.5 1935,510Z" style="fill:rgb(217,217,217);"/>
        </g>
        <g transform="matrix(1,0,0,1,-1320,-480)">
            <path d="M1915,499L1915,605L1925,605L1925,499L1915,499Z" style="fill:rgb(217,217,217);"/>
        </g>
        <g transform="matrix(1,0,0,1,-720,-480)">
            <path d="M1935,510L1920,480L1905,510C1912.5,502.5 1927.5,502.5 1935,510Z" style="fill:rgb(217,217,217);"/>
        </g>
        <g transform="matrix(1,0,0,1,-720,-480)">
            <path d="M1915,499L1915,605L1925,605L1925,499L1915,499Z" style="fill:rgb(217,217,217);"/>
        </g>
        <g transform="matrix(1,0,0,1,-120,-480)">
            <path d="M1935,510L1920,480L1905,510C1912.5,502.5 1927.5,502.5 1935,510Z" style="fill:rgb(217,217,217);"/>
        </g>
        <g transform="matrix(1,0,0,1,-120,-480)">
            <path d="M1915,499L1915,605L1925,605L1925,499L1915,499Z" style="fill:rgb(217,217,217);"/>
        </g>
        <g transform="matrix(-1,-1.22465e-16,1.22465e-16,-1,2220,720)">
            <path d="M1935,510L1920,480L1905,510C1912.5,502.5 1927.5,502.5 1935,510Z" style="fill:rgb(217,217,217);"/>
        </g>
        <g transform="matrix(-1,-1.22465e-16,1.22465e-16,-1,2220,720)">
            <path d="M1915,499L1915,605L1925,605L1925,499L1915,499Z" style="fill:rgb(217,217,217);"/>
        </g>
        <g transform="matrix(-1,-1.22465e-16,1.22465e-16,-1,3420,720)">
            <path d="M1935,510L1920,480L1905,510C1912.5,502.5 1927.5,502.5 1935,510Z" style="fill:rgb(217,217,217);"/>
        </g>
        <g transform="matrix(-1,-1.22465e-16,1.22465e-16,-1,3420,720)">
            <path d="M1915,499L1915,605L1925,605L1925,499L1915,499Z" style="fill:rgb(217,217,217);"/>
        </g>
    </g>
</svg>
