<?xml version="1.0" encoding="UTF-8" standalone="no"?>
<!DOCTYPE svg PUBLIC "-//W3C//DTD SVG 1.1//EN" "http://www.w3.org/Graphics/SVG/1.1/DTD/svg11.dtd">
<svg width="100%" height="100%" viewBox="0 0 172 27" version="1.1" xmlns="http://www.w3.org/2000/svg" xmlns:xlink="http://www.w3.org/1999/xlink" xml:space="preserve" xmlns:serif="http://www.serif.com/" style="fill-rule:evenodd;clip-rule:evenodd;stroke-linejoin:round;stroke-miterlimit:2;">
    <g>
        <path d="M22.915,10.723C23.582,10.723 24.132,11.27 24.135,11.937L24.135,24.642C24.135,25.311 23.594,25.857 22.921,25.857L1.259,25.857C0.592,25.857 0.044,25.309 0.044,24.642L0.044,1.601C0.044,0.933 0.585,0.387 1.26,0.387L3.893,0.387C4.561,0.387 5.107,0.927 5.107,1.601L5.107,9.58C5.144,10.164 5.593,10.646 6.173,10.723L8.143,10.723C8.74,10.668 9.237,10.182 9.27,9.58L9.27,1.6C9.27,0.932 9.81,0.386 10.484,0.386L13.117,0.386C13.785,0.386 14.332,0.926 14.332,1.6L14.332,9.496C14.332,10.12 14.79,10.65 15.392,10.722L22.916,10.722L22.915,10.723ZM19.448,19.436L19.448,16.95C19.448,16.282 18.908,15.735 18.234,15.735L15.6,15.735C14.932,15.735 14.385,16.276 14.385,16.95L14.385,19.435C14.385,20.103 14.926,20.649 15.6,20.649L18.233,20.649C18.901,20.649 19.447,20.109 19.447,19.435L19.448,19.436ZM41.668,25.88L40.409,20.004C40.253,19.217 40.054,18.439 39.813,17.674C39.598,16.995 39.293,16.426 38.913,15.963C38.527,15.499 38.024,15.151 37.4,14.908C36.777,14.671 35.96,14.549 34.95,14.549L32.305,14.549L32.305,25.879L29.424,25.879L29.424,0.431L35.728,0.431C36.771,0.431 37.781,0.541 38.764,0.756C39.741,0.972 40.608,1.331 41.359,1.828C42.114,2.332 42.735,3.012 43.169,3.81C43.627,4.633 43.854,5.643 43.854,6.847C43.854,7.769 43.744,8.586 43.528,9.287C43.331,9.953 43.001,10.571 42.556,11.104C42.126,11.612 41.585,12.042 40.945,12.39C40.305,12.738 39.548,13.02 38.687,13.235L38.687,13.307C39.526,13.522 40.199,13.798 40.702,14.124C41.204,14.455 41.607,14.847 41.911,15.306C42.209,15.764 42.441,16.288 42.606,16.879C42.772,17.47 42.926,18.149 43.081,18.906L44.549,25.879L41.668,25.879L41.668,25.88ZM40.967,7.15C40.967,6.096 40.779,5.273 40.409,4.693C40.055,4.129 39.542,3.681 38.935,3.407C38.322,3.131 37.627,2.965 36.848,2.91C36.051,2.854 35.252,2.826 34.453,2.827L32.31,2.827L32.31,12.158L33.894,12.158C34.761,12.158 35.611,12.098 36.461,11.971C37.254,11.861 38.022,11.614 38.73,11.241C39.395,10.885 39.955,10.359 40.353,9.718C40.756,9.061 40.966,8.205 40.966,7.15L40.967,7.15ZM57.82,25.88L57.82,23.555L57.749,23.555C57.506,24.014 57.176,24.421 56.777,24.753C56.368,25.095 55.921,25.383 55.435,25.609C54.946,25.836 54.433,26.008 53.906,26.122C53.4,26.234 52.884,26.291 52.366,26.293C51.61,26.293 50.936,26.177 50.351,25.94C49.791,25.728 49.286,25.39 48.877,24.952C48.467,24.505 48.157,23.976 47.967,23.4C47.757,22.793 47.652,22.12 47.652,21.374C47.652,20.7 47.784,20.104 48.049,19.574C48.314,19.044 48.662,18.58 49.104,18.177C49.561,17.762 50.073,17.412 50.627,17.139C51.207,16.846 51.803,16.614 52.421,16.437C53.595,16.098 54.809,15.921 56.031,15.912C56.33,15.912 56.622,15.907 56.898,15.902C57.174,15.896 57.461,15.863 57.765,15.802L57.765,15.427C57.765,14.781 57.754,14.135 57.737,13.489C57.73,12.895 57.62,12.306 57.412,11.749C57.221,11.245 56.882,10.81 56.44,10.502C55.993,10.187 55.325,10.027 54.453,10.027C53.934,10.027 53.47,10.077 53.056,10.171C52.672,10.252 52.308,10.409 51.986,10.634C51.678,10.86 51.428,11.155 51.256,11.496C51.069,11.855 50.942,12.296 50.87,12.821L48.077,12.821C48.087,11.931 48.276,11.181 48.645,10.563C49.001,9.957 49.49,9.439 50.075,9.05C50.69,8.649 51.37,8.359 52.085,8.194C52.837,8.013 53.608,7.922 54.381,7.924C56.374,7.924 57.853,8.376 58.819,9.276C59.786,10.176 60.271,11.606 60.271,13.561L60.271,25.879L57.821,25.879L57.82,25.88ZM56.27,17.917C55.706,17.917 55.088,17.978 54.425,18.105C53.777,18.225 53.149,18.435 52.559,18.729C51.979,19.022 51.499,19.397 51.108,19.872C50.716,20.347 50.522,20.932 50.522,21.628C50.522,22.373 50.749,22.986 51.196,23.466C51.649,23.946 52.245,24.184 52.99,24.184C53.432,24.184 53.862,24.118 54.27,23.974C54.676,23.839 55.06,23.648 55.413,23.406C55.772,23.161 56.097,22.87 56.379,22.539C56.667,22.202 56.904,21.837 57.081,21.439C57.224,21.114 57.34,20.816 57.434,20.551C57.613,20.018 57.714,19.462 57.732,18.9C57.743,18.613 57.749,18.282 57.749,17.912L56.269,17.912L56.269,17.917L56.27,17.917ZM79.245,17.288C79.245,18.442 79.129,19.558 78.892,20.639C78.654,21.722 78.262,22.682 77.71,23.522C77.161,24.359 76.416,25.051 75.54,25.537C74.646,26.039 73.531,26.293 72.2,26.293C70.964,26.293 69.926,26.1 69.087,25.719C68.248,25.333 67.569,24.803 67.061,24.118C66.554,23.433 66.184,22.628 65.963,21.694C65.735,20.698 65.624,19.679 65.632,18.657L65.632,0.431L68.132,0.431L68.132,11.236L68.221,11.236C68.366,10.73 68.604,10.254 68.921,9.834C69.23,9.432 69.602,9.081 70.021,8.796C70.447,8.511 70.914,8.294 71.406,8.15C71.915,7.999 72.443,7.922 72.974,7.923C73.813,7.923 74.553,8.056 75.187,8.326C75.822,8.597 76.374,8.966 76.832,9.436C77.296,9.906 77.682,10.446 77.992,11.066C78.309,11.694 78.557,12.355 78.732,13.036C78.914,13.732 79.041,14.444 79.118,15.173C79.206,15.896 79.245,16.603 79.245,17.288ZM76.363,17.222C76.36,16.763 76.34,16.304 76.303,15.847C76.257,15.323 76.185,14.801 76.087,14.284C75.987,13.749 75.844,13.229 75.662,12.722C75.494,12.238 75.258,11.781 74.961,11.363C74.683,10.974 74.328,10.648 73.918,10.403C73.509,10.154 73.034,10.033 72.493,10.033C71.919,10.033 71.406,10.165 70.964,10.43C70.516,10.7 70.124,11.055 69.811,11.474C69.485,11.904 69.214,12.396 68.999,12.948C68.785,13.497 68.613,14.062 68.486,14.638C68.363,15.195 68.273,15.759 68.216,16.327C68.164,16.817 68.136,17.309 68.132,17.801C68.132,18.475 68.182,19.181 68.276,19.921C68.37,20.667 68.563,21.357 68.844,21.992C69.126,22.627 69.529,23.152 70.054,23.566C70.578,23.98 71.268,24.184 72.134,24.184C72.709,24.184 73.217,24.074 73.658,23.858C74.088,23.646 74.471,23.35 74.784,22.986C75.099,22.622 75.353,22.196 75.557,21.716C75.761,21.236 75.922,20.739 76.043,20.226C76.164,19.712 76.247,19.193 76.297,18.679C76.341,18.166 76.363,17.679 76.363,17.222ZM96.982,17.288C96.982,18.442 96.866,19.558 96.628,20.639C96.391,21.722 95.999,22.682 95.448,23.522C94.899,24.359 94.154,25.051 93.278,25.537C92.383,26.039 91.268,26.293 89.938,26.293C88.701,26.293 87.663,26.1 86.824,25.719C85.985,25.333 85.306,24.803 84.798,24.118C84.29,23.433 83.921,22.628 83.7,21.694C83.472,20.698 83.361,19.679 83.369,18.657L83.369,0.431L85.869,0.431L85.869,11.236L85.958,11.236C86.103,10.73 86.341,10.254 86.658,9.834C86.967,9.432 87.339,9.081 87.758,8.796C88.184,8.511 88.651,8.293 89.143,8.15C89.652,7.999 90.18,7.922 90.711,7.923C91.55,7.923 92.289,8.056 92.924,8.326C93.559,8.597 94.111,8.966 94.569,9.436C95.033,9.906 95.419,10.446 95.729,11.066C96.046,11.694 96.294,12.355 96.469,13.036C96.651,13.732 96.777,14.444 96.855,15.173C96.943,15.896 96.982,16.603 96.982,17.288ZM94.1,17.222C94.097,16.763 94.077,16.304 94.04,15.847C93.994,15.323 93.922,14.801 93.824,14.284C93.724,13.749 93.581,13.229 93.399,12.722C93.231,12.238 92.995,11.781 92.698,11.363C92.42,10.974 92.065,10.648 91.655,10.403C91.246,10.154 90.771,10.033 90.23,10.033C89.656,10.033 89.143,10.165 88.701,10.43C88.253,10.7 87.861,11.055 87.547,11.474C87.222,11.904 86.951,12.396 86.736,12.948C86.522,13.497 86.35,14.062 86.223,14.638C86.1,15.195 86.01,15.759 85.953,16.327C85.901,16.817 85.873,17.309 85.869,17.801C85.869,18.475 85.919,19.181 86.013,19.921C86.107,20.667 86.3,21.357 86.581,21.992C86.863,22.627 87.266,23.152 87.791,23.566C88.315,23.98 89.005,24.184 89.871,24.184C90.446,24.184 90.954,24.074 91.395,23.858C91.825,23.646 92.208,23.35 92.521,22.986C92.836,22.622 93.09,22.196 93.294,21.716C93.498,21.234 93.66,20.735 93.78,20.226C93.901,19.712 93.984,19.193 94.034,18.679C94.078,18.166 94.1,17.679 94.1,17.222ZM101.41,3.744L101.41,0.43L104.721,0.43L104.721,3.743L101.409,3.743L101.41,3.744ZM101.807,25.879L101.807,8.321L104.307,8.321L104.307,25.879L101.807,25.879ZM114.194,10.425L114.194,21.23C114.194,22.169 114.421,22.892 114.879,23.411C115.337,23.931 116.066,24.184 117.065,24.184C117.361,24.189 117.658,24.161 117.948,24.101C118.231,24.032 118.51,23.945 118.782,23.841L118.782,26.095C118.412,26.155 118.042,26.205 117.672,26.238C117.308,26.277 116.938,26.293 116.562,26.293C115.734,26.293 115.017,26.216 114.41,26.061C113.802,25.907 113.294,25.653 112.886,25.294C112.477,24.941 112.174,24.477 111.976,23.897C111.776,23.317 111.677,22.605 111.677,21.755L111.677,10.425L108.812,10.425L108.812,8.315L111.677,8.315L111.677,4.23L114.177,2.646L114.177,8.316L118.914,8.316L118.914,10.426L114.194,10.426L114.194,10.425Z" style="fill:white;fill-rule:nonzero;"/>
        <path d="M143.49,25.949L143.49,3.559L143.42,3.559L135.928,25.943L133.085,25.943L125.61,3.559L125.522,3.559L125.522,25.943L122.95,25.943L122.95,0.5L127.272,0.5L134.492,22.15L134.564,22.15L141.802,0.5L146.069,0.5L146.069,25.949L143.49,25.949ZM160.256,25.957C159.069,25.957 158.015,25.78 157.104,25.427C156.223,25.092 155.41,24.598 154.708,23.969C154.019,23.344 153.435,22.611 152.98,21.799C152.506,20.958 152.127,20.068 151.849,19.144C151.557,18.184 151.349,17.201 151.225,16.206C151.1,15.206 151.037,14.199 151.037,13.191C151.037,12.137 151.092,11.082 151.208,10.033C151.318,9.007 151.51,7.991 151.782,6.996C152.052,6.019 152.417,5.119 152.87,4.274C153.315,3.451 153.9,2.711 154.598,2.088C155.293,1.469 156.121,0.983 157.071,0.63C158.026,0.277 159.141,0.1 160.411,0.1C161.647,0.1 162.729,0.282 163.662,0.647C164.549,0.987 165.363,1.495 166.058,2.143C166.726,2.773 167.278,3.513 167.714,4.368C168.15,5.218 168.498,6.129 168.752,7.096C169.006,8.062 169.182,9.066 169.282,10.11C169.382,11.154 169.437,12.181 169.437,13.191C169.432,14.413 169.351,15.634 169.194,16.846C169.103,17.542 168.977,18.233 168.818,18.917C168.658,19.613 168.448,20.27 168.194,20.883C167.953,21.472 167.648,22.033 167.284,22.556C166.958,23.031 166.539,23.434 166.053,23.743L166.124,23.815L171.364,23.489L171.364,25.957L160.256,25.957ZM166.306,13.153C166.306,12.49 166.284,11.767 166.246,10.983C166.202,10.192 166.112,9.405 165.976,8.625C165.839,7.848 165.637,7.083 165.374,6.339C165.126,5.633 164.77,4.97 164.319,4.374C163.884,3.809 163.335,3.342 162.707,3.004C162.072,2.662 161.305,2.491 160.417,2.491C159.477,2.491 158.677,2.656 158.009,2.988C157.357,3.307 156.779,3.76 156.315,4.318C155.841,4.896 155.462,5.547 155.194,6.245C154.91,6.984 154.692,7.747 154.543,8.525C154.393,9.321 154.294,10.116 154.244,10.911C154.194,11.711 154.173,12.457 154.173,13.153C154.173,13.815 154.2,14.528 154.261,15.295C154.321,16.063 154.427,16.83 154.587,17.603C154.741,18.371 154.962,19.116 155.244,19.833C155.508,20.522 155.877,21.167 156.337,21.744C156.784,22.296 157.325,22.738 157.96,23.069C158.595,23.401 159.35,23.566 160.212,23.566C161.184,23.566 162.012,23.412 162.691,23.097C163.34,22.804 163.917,22.375 164.385,21.838C164.845,21.296 165.205,20.677 165.451,20.01C165.711,19.32 165.903,18.586 166.031,17.813C166.157,17.04 166.235,16.25 166.262,15.455C166.29,14.649 166.306,13.882 166.306,13.153Z" style="fill:white;fill-rule:nonzero;"/>
    </g>
</svg>
